<?xml version="1.0" encoding="UTF-8"?>
<svg xmlns="http://www.w3.org/2000/svg" xmlns:xlink="http://www.w3.org/1999/xlink" width="20px" height="20px" viewBox="0 0 20 20" version="1.1">
<g id="surface1">
<path style="fill:none;stroke-width:2;stroke-linecap:round;stroke-linejoin:round;stroke:rgb(0%,0%,0%);stroke-opacity:1;stroke-miterlimit:4;" d="M 0.998437 12 C 0.998437 12 5.001562 3.998437 12 3.998437 C 18.998437 3.998437 23.001562 12 23.001562 12 " transform="matrix(0.833333,0,0,0.833333,0,0)"/>
<path style="fill:none;stroke-width:2;stroke-linecap:round;stroke-linejoin:round;stroke:rgb(0%,0%,0%);stroke-opacity:1;stroke-miterlimit:4;" d="M 0.998437 12 C 0.998437 12 5.001562 20.001562 12 20.001562 C 18.998437 20.001562 23.001562 12 23.001562 12 " transform="matrix(0.833333,0,0,0.833333,0,0)"/>
<path style="fill:none;stroke-width:2;stroke-linecap:round;stroke-linejoin:round;stroke:rgb(0%,0%,0%);stroke-opacity:1;stroke-miterlimit:4;" d="M 15 12 C 15 13.654687 13.654687 15 12 15 C 10.345312 15 9 13.654687 9 12 C 9 10.345312 10.345312 9 12 9 C 13.654687 9 15 10.345312 15 12 Z M 15 12 " transform="matrix(0.833333,0,0,0.833333,0,0)"/>
</g>
</svg>
