<?xml version="1.0" encoding="UTF-8"?>
<svg xmlns="http://www.w3.org/2000/svg" xmlns:xlink="http://www.w3.org/1999/xlink" width="20px" height="20px" viewBox="0 0 20 20" version="1.1">
<g id="surface1">
<path style=" stroke:none;fill-rule:nonzero;fill:rgb(10.980392%,15.294118%,29.803922%);fill-opacity:1;" d="M 11.667969 2.292969 C 13.253906 2.292969 14.382812 2.292969 15.242188 2.40625 C 16.078125 2.519531 16.5625 2.730469 16.914062 3.085938 C 17.320312 3.492188 17.496094 3.804688 17.59375 4.367188 C 17.707031 5 17.707031 5.902344 17.707031 7.5 C 17.707031 7.84375 17.988281 8.125 18.332031 8.125 C 18.679688 8.125 18.957031 7.84375 18.957031 7.5 L 18.957031 7.417969 C 18.957031 5.921875 18.957031 4.90625 18.828125 4.152344 C 18.679688 3.3125 18.371094 2.769531 17.800781 2.199219 C 17.175781 1.578125 16.382812 1.300781 15.40625 1.167969 C 14.457031 1.042969 13.246094 1.042969 11.714844 1.042969 L 11.667969 1.042969 C 11.320312 1.042969 11.042969 1.320312 11.042969 1.667969 C 11.042969 2.011719 11.320312 2.292969 11.667969 2.292969 Z M 11.667969 2.292969 "/>
<path style=" stroke:none;fill-rule:nonzero;fill:rgb(10.980392%,15.294118%,29.803922%);fill-opacity:1;" d="M 1.667969 11.875 C 2.011719 11.875 2.292969 12.15625 2.292969 12.5 C 2.292969 14.097656 2.292969 15 2.40625 15.632812 C 2.503906 16.195312 2.679688 16.507812 3.085938 16.914062 C 3.4375 17.269531 3.921875 17.480469 4.757812 17.59375 C 5.617188 17.707031 6.746094 17.707031 8.332031 17.707031 C 8.679688 17.707031 8.957031 17.988281 8.957031 18.332031 C 8.957031 18.679688 8.679688 18.957031 8.332031 18.957031 L 8.285156 18.957031 C 6.753906 18.957031 5.542969 18.957031 4.59375 18.832031 C 3.617188 18.699219 2.824219 18.421875 2.199219 17.800781 C 1.628906 17.230469 1.320312 16.6875 1.171875 15.847656 C 1.042969 15.09375 1.042969 14.078125 1.042969 12.582031 L 1.042969 12.5 C 1.042969 12.15625 1.320312 11.875 1.667969 11.875 Z M 1.667969 11.875 "/>
<path style=" stroke:none;fill-rule:nonzero;fill:rgb(10.980392%,15.294118%,29.803922%);fill-opacity:1;" d="M 18.332031 11.875 C 18.679688 11.875 18.957031 12.15625 18.957031 12.5 L 18.957031 12.582031 C 18.957031 14.078125 18.957031 15.09375 18.828125 15.847656 C 18.679688 16.6875 18.371094 17.230469 17.800781 17.800781 C 17.175781 18.421875 16.382812 18.699219 15.40625 18.832031 C 14.457031 18.957031 13.246094 18.957031 11.714844 18.957031 L 11.667969 18.957031 C 11.320312 18.957031 11.042969 18.679688 11.042969 18.332031 C 11.042969 17.988281 11.320312 17.707031 11.667969 17.707031 C 13.253906 17.707031 14.382812 17.707031 15.242188 17.59375 C 16.078125 17.480469 16.5625 17.269531 16.914062 16.914062 C 17.320312 16.507812 17.496094 16.195312 17.59375 15.632812 C 17.707031 15 17.707031 14.097656 17.707031 12.5 C 17.707031 12.15625 17.988281 11.875 18.332031 11.875 Z M 18.332031 11.875 "/>
<path style=" stroke:none;fill-rule:nonzero;fill:rgb(10.980392%,15.294118%,29.803922%);fill-opacity:1;" d="M 8.285156 1.042969 L 8.332031 1.042969 C 8.679688 1.042969 8.957031 1.320312 8.957031 1.667969 C 8.957031 2.011719 8.679688 2.292969 8.332031 2.292969 C 6.746094 2.292969 5.617188 2.292969 4.757812 2.40625 C 3.921875 2.519531 3.4375 2.730469 3.085938 3.085938 C 2.679688 3.492188 2.503906 3.804688 2.40625 4.367188 C 2.292969 5 2.292969 5.902344 2.292969 7.5 C 2.292969 7.84375 2.011719 8.125 1.667969 8.125 C 1.320312 8.125 1.042969 7.84375 1.042969 7.5 L 1.042969 7.417969 C 1.042969 5.921875 1.042969 4.90625 1.171875 4.152344 C 1.320312 3.3125 1.628906 2.769531 2.199219 2.199219 C 2.824219 1.578125 3.617188 1.300781 4.59375 1.167969 C 5.542969 1.042969 6.753906 1.042969 8.285156 1.042969 Z M 8.285156 1.042969 "/>
<path style=" stroke:none;fill-rule:nonzero;fill:rgb(10.980392%,15.294118%,29.803922%);fill-opacity:1;" d="M 10 8.957031 C 9.425781 8.957031 8.957031 9.425781 8.957031 10 C 8.957031 10.574219 9.425781 11.042969 10 11.042969 C 10.574219 11.042969 11.042969 10.574219 11.042969 10 C 11.042969 9.425781 10.574219 8.957031 10 8.957031 Z M 10 8.957031 "/>
<path style=" stroke:none;fill-rule:evenodd;fill:rgb(10.980392%,15.294118%,29.803922%);fill-opacity:1;" d="M 4.910156 11.714844 C 4.414062 11.140625 4.167969 10.855469 4.167969 10 C 4.167969 9.144531 4.414062 8.859375 4.910156 8.285156 C 5.898438 7.136719 7.5625 5.832031 10 5.832031 C 12.4375 5.832031 14.101562 7.136719 15.089844 8.285156 C 15.585938 8.859375 15.832031 9.144531 15.832031 10 C 15.832031 10.855469 15.585938 11.140625 15.089844 11.714844 C 14.101562 12.863281 12.4375 14.167969 10 14.167969 C 7.5625 14.167969 5.898438 12.863281 4.910156 11.714844 Z M 7.707031 10 C 7.707031 8.734375 8.734375 7.707031 10 7.707031 C 11.265625 7.707031 12.292969 8.734375 12.292969 10 C 12.292969 11.265625 11.265625 12.292969 10 12.292969 C 8.734375 12.292969 7.707031 11.265625 7.707031 10 Z M 7.707031 10 "/>
</g>
</svg>
